# xmcd
#
# Track frame offsets: 
#        150
#        11029
#        22996
#        38652
#        50144
#        66319
#        79855
#        92324
#        106295
#        120418
#        136264
#        152194
#        163822
#
# Disc length: 2337 seconds
#
# Revision: 0
# Processed by: cddbd v1.5.1PL2 Copyright (c) Steve Scherf et al.
# Submitted via: ExactAudioCopy v0.95a5
#
DISCID=a0091f0d
DTITLE=Crosscut Bluegrass - The Crosscut
DYEAR=1900
DGENRE=Bluegrass
TTITLE0=Hold What You Got
TTITLE1=Kentucky Mandolin
TTITLE2=I Am Weary
TTITLE3=Wear A Red Rose
TTITLE4=Letter From My Darling
TTITLE5=Sally Ann
TTITLE6=You're Still To Blame
TTITLE7=Come On Down To My World
TTITLE8=I'll Pretend It's Raining
TTITLE9=When The Golden Leaves Begin To Fall
TTITLE10=Tall Pines
TTITLE11=Ground Speed
TTITLE12=Wait A Little Longer
EXTD=
EXTT0=
EXTT1=
EXTT2=
EXTT3=
EXTT4=
EXTT5=
EXTT6=
EXTT7=
EXTT8=
EXTT9=
EXTT10=
EXTT11=
EXTT12=
PLAYORDER=
